<?xml version="1.0" encoding="UTF-8"?>
<!DOCTYPE svg PUBLIC "-//W3C//DTD SVG 1.0//EN" "http://www.w3.org/TR/2001/REC-SVG-20010904/DTD/svg10.dtd">
<!-- Creator: CorelDRAW X7 -->
<svg xmlns="http://www.w3.org/2000/svg" xml:space="preserve" width="102px" height="22px" version="1.0" style="shape-rendering:geometricPrecision; text-rendering:geometricPrecision; image-rendering:optimizeQuality; fill-rule:evenodd; clip-rule:evenodd"
viewBox="0 0 5 1"
 xmlns:xlink="http://www.w3.org/1999/xlink">
 <defs>
  <style type="text/css">
   <![CDATA[
    .fil0 {fill:black}
    .fil2 {fill:#DE7B32}
    .fil3 {fill:red}
    .fil1 {fill:#FFA100}
    .fil4 {fill:white;fill-rule:nonzero}
   ]]>
  </style>
 </defs>
 <g id="Layer_x0020_1">
  <metadata id="CorelCorpID_0Corel-Layer"/>
  <g id="_1317888544">
   <rect class="fil0" width="4.7364" height="1.02348"/>
   <g>
    <g>
     <path class="fil1" d="M1 0l0 1 0 0 -1 0 1 -1z"/>
     <path class="fil2" d="M0 1l0 0 1 -1 0 0 -1 0 0 1z"/>
     <rect class="fil3" width="0.242965" height="0.87668"/>
    </g>
    <path class="fil4" d="M1 1l0 0 0 0 0 0 0 0 0 0 0 -1 0 0 0 0 0 0 0 0 0 0 0 1zm0 0l0 0 0 0 0 0 0 0 1 0 0 0c0,0 0,-1 0,-1l0 0c0,0 0,0 0,0 0,0 -1,0 -1,0l0 0 0 1zm0 -1l0 0 0 0c0,0 0,0 0,0l0 0c0,0 0,0 0,0l0 0zm1 1c0,0 0,0 0,-1l0 0c0,0 0,0 0,0 0,0 0,0 0,0l0 0c0,1 0,1 0,1zm0 0c0,0 0,0 0,-1l0 0c0,0 0,0 0,0 0,0 0,0 0,0l0 0c0,1 0,1 0,1zm0 0l0 0 0 -1 0 1 0 0 0 -1 0 0 0 0 0 0 0 0 0 1zm1 0c0,0 0,0 0,-1l0 0c0,0 0,0 0,0 -1,0 -1,0 -1,0l0 0c0,1 0,1 1,1zm0 0c-1,0 -1,0 -1,-1l0 0c0,0 0,0 1,0 0,0 0,0 0,0l0 0c0,1 0,1 0,1zm0 0l0 0 0 -1 0 0 0 1zm0 0l0 0 0 0 0 0 0 -1 0 0 0 0 0 0 0 0 0 0 0 1zm0 0l0 0 0 -1 0 0 0 1zm0 0c0,0 1,0 1,0l0 0c0,-1 -1,-1 -1,-1 0,0 0,0 0,1l0 0c0,0 0,0 0,0zm0 0c0,0 0,0 0,0l0 0c0,-1 0,-1 0,-1 0,0 0,0 0,1l0 0c0,0 0,0 0,0zm1 0c0,0 0,0 0,0l0 0c0,-1 0,-1 0,-1 0,0 0,0 0,1l0 0c0,0 0,0 0,0zm0 0c0,0 0,0 0,0l0 0c0,-1 0,-1 0,-1 0,0 0,0 0,1l0 0c0,0 0,0 0,0zm0 0l0 0 0 0c0,-1 0,-1 0,-1l0 0 0 0c0,0 0,0 0,0l0 0 0 0 0 1zm0 -1l0 0 0 0 0 0 0 0zm0 1l0 0 0 -1 0 0 0 1zm0 0l0 0 0 0c0,-1 0,-1 0,-1 0,0 0,0 0,1l0 0 0 0 0 0c0,-1 0,-1 0,-1 0,0 0,0 0,0l0 0 0 0 0 1zm1 0c0,0 0,0 0,0 0,0 0,0 0,0l0 -1 0 0 0 0c0,0 0,0 0,0 -1,0 -1,0 -1,1l0 0c0,0 0,0 1,0 0,0 0,0 0,0l0 0c0,0 0,0 0,0 -1,0 -1,0 -1,0l0 0c0,0 0,0 1,0zm0 0c-1,0 -1,0 -1,0l0 0c0,-1 0,-1 1,-1 0,0 0,0 0,1l0 0c0,0 0,0 0,0z"/>
   </g>
  </g>
 </g>
</svg>
